<svg width="70" height="48" viewBox="0 0 70 48" fill="none" xmlns="http://www.w3.org/2000/svg">
<rect x="0.5" y="0.5" width="69" height="47" rx="5.5" fill="white" stroke="#D9D9D9"/>
<path fill-rule="evenodd" clip-rule="evenodd" d="M19.8 30.4819H16.6888C16.4759 30.4819 16.2948 30.6367 16.2616 30.8468L15.0033 38.8249C14.9783 38.9824 15.1002 39.1243 15.2599 39.1243H16.7452C16.9581 39.1243 17.1392 38.9695 17.1724 38.759L17.5118 36.6072C17.5445 36.3965 17.726 36.2419 17.9385 36.2419H18.9234C20.9729 36.2419 22.1556 35.2502 22.4647 33.2849C22.6038 32.4251 22.4705 31.7495 22.0678 31.2762C21.6257 30.7569 20.8413 30.4819 19.8 30.4819ZM20.159 33.3958C19.9889 34.5123 19.1358 34.5123 18.3111 34.5123H17.8416L18.1709 32.4272C18.1905 32.3013 18.2997 32.2085 18.4271 32.2085H18.6422C19.2041 32.2085 19.7341 32.2085 20.008 32.5287C20.1712 32.7198 20.2213 33.0036 20.159 33.3958ZM29.1002 33.36H27.6103C27.4834 33.36 27.3737 33.4529 27.3541 33.579L27.2882 33.9956L27.184 33.8447C26.8615 33.3765 26.1423 33.22 25.4244 33.22C23.7779 33.22 22.3718 34.467 22.0979 36.2163C21.9556 37.0887 22.1579 37.923 22.6529 38.5049C23.107 39.0398 23.7567 39.2628 24.5295 39.2628C25.856 39.2628 26.5918 38.4097 26.5918 38.4097L26.5253 38.8238C26.5002 38.9822 26.6221 39.1241 26.7809 39.1241H28.123C28.3365 39.1241 28.5165 38.9693 28.5501 38.7588L29.3554 33.6594C29.3809 33.5026 29.2594 33.36 29.1002 33.36ZM27.0234 36.2598C26.8796 37.111 26.204 37.6824 25.3426 37.6824C24.9099 37.6824 24.564 37.5436 24.3421 37.2807C24.1219 37.0196 24.0381 36.6478 24.1082 36.2339C24.2425 35.3899 24.9295 34.8 25.7779 34.8C26.2009 34.8 26.5449 34.9405 26.7714 35.2057C26.9983 35.4737 27.0885 35.8476 27.0234 36.2598ZM35.5379 33.3598H37.0352C37.2449 33.3598 37.3672 33.595 37.2481 33.767L32.2685 40.9548C32.1878 41.0712 32.055 41.1405 31.9131 41.1405H30.4177C30.2072 41.1405 30.0842 40.9034 30.2061 40.731L31.7567 38.5424L30.1076 33.7028C30.0506 33.5346 30.1748 33.3598 30.3537 33.3598H31.8249C32.016 33.3598 32.1847 33.4853 32.2398 33.6683L33.115 36.5912L35.1801 33.5495C35.2609 33.4308 35.3952 33.3598 35.5379 33.3598Z" fill="#253B80"/>
<path fill-rule="evenodd" clip-rule="evenodd" d="M51.7709 38.8248L53.0478 30.7008C53.0673 30.5747 53.1766 30.4819 53.3035 30.4814H54.741C54.8998 30.4814 55.0217 30.6238 54.9966 30.7812L53.7374 38.7589C53.7046 38.9695 53.5235 39.1242 53.3103 39.1242H52.0265C51.8677 39.1242 51.7459 38.9823 51.7709 38.8248ZM41.9921 30.4819H38.8803C38.6679 30.4819 38.4869 30.6366 38.4536 30.8467L37.1953 38.8248C37.1702 38.9823 37.2921 39.1242 37.4511 39.1242H39.0477C39.1961 39.1242 39.3231 39.016 39.3462 38.8686L39.7033 36.6071C39.7361 36.3964 39.9176 36.2419 40.13 36.2419H41.1145C43.1644 36.2419 44.3469 35.2501 44.6562 33.2848C44.7957 32.425 44.6616 31.7494 44.2591 31.2762C43.8172 30.7568 43.0334 30.4819 41.9921 30.4819ZM42.3511 33.3958C42.1814 34.5122 41.3284 34.5122 40.5031 34.5122H40.034L40.3639 32.4271C40.3835 32.3012 40.4917 32.2084 40.6195 32.2084H40.8347C41.3961 32.2084 41.9267 32.2084 42.2004 32.5286C42.3637 32.7198 42.4134 33.0036 42.3511 33.3958ZM51.2915 33.36H49.8027C49.6747 33.36 49.5661 33.4528 49.5469 33.5789L49.481 33.9956L49.3764 33.8446C49.0538 33.3764 48.3351 33.22 47.6172 33.22C45.9707 33.22 44.565 34.4669 44.2911 36.2162C44.1492 37.0886 44.3507 37.9229 44.8456 38.5048C45.3006 39.0398 45.9494 39.2627 46.7223 39.2627C48.0488 39.2627 48.7844 38.4097 48.7844 38.4097L48.7181 38.8238C48.693 38.9821 48.8149 39.124 48.9747 39.124H50.3162C50.5286 39.124 50.7096 38.9693 50.7429 38.7587L51.5486 33.6593C51.5732 33.5025 51.4513 33.36 51.2915 33.36ZM49.2149 36.2598C49.072 37.1109 48.3955 37.6823 47.5338 37.6823C47.1021 37.6823 46.7555 37.5436 46.5334 37.2806C46.3132 37.0196 46.2305 36.6478 46.2997 36.2339C46.4347 35.3899 47.1208 34.8 47.9692 34.8C48.3924 34.8 48.7362 34.9404 48.9629 35.2057C49.1907 35.4737 49.2808 35.8476 49.2149 36.2598Z" fill="#179BD7"/>
<path d="M31.314 27.6276L31.6966 25.1981L30.8446 25.1784H26.7761L29.6035 7.25069C29.6121 7.19656 29.6408 7.1461 29.6824 7.11027C29.7241 7.07444 29.7776 7.05469 29.8332 7.05469H36.6932C38.9707 7.05469 40.5423 7.5286 41.3629 8.464C41.7475 8.90282 41.9926 9.36137 42.1111 9.866C42.2353 10.3955 42.2376 11.0281 42.1162 11.7997L42.1073 11.856V12.3504L42.4922 12.5684C42.8162 12.7402 43.0734 12.937 43.2709 13.1622C43.6002 13.5374 43.813 14.0142 43.9029 14.5796C43.9957 15.161 43.965 15.8529 43.813 16.6361C43.6374 17.5372 43.3536 18.3219 42.9705 18.964C42.6178 19.5557 42.1688 20.0463 41.6357 20.4268C41.1267 20.788 40.5218 21.0623 39.838 21.2379C39.1753 21.4103 38.4199 21.4975 37.5913 21.4975H37.0574C36.6757 21.4975 36.3048 21.635 36.0138 21.8815C35.722 22.1331 35.5288 22.4767 35.4696 22.8527L35.4294 23.0714L34.7536 27.3533L34.7229 27.5106C34.7149 27.5605 34.701 27.5853 34.6806 27.6021C34.6622 27.6173 34.6359 27.6276 34.6102 27.6276H31.314Z" fill="#253B80"/>
<path d="M42.8564 11.9131C42.836 12.044 42.8126 12.1778 42.7863 12.3153C41.8814 16.9602 38.7865 18.5647 34.8334 18.5647H32.8208C32.3374 18.5647 31.93 18.9158 31.8547 19.3926L30.8241 25.9281L30.5323 27.7805C30.4833 28.0935 30.7248 28.3759 31.0406 28.3759H34.6105C35.0332 28.3759 35.3922 28.0687 35.4587 27.6519L35.4938 27.4704L36.166 23.2051L36.2092 22.9712C36.2749 22.5529 36.6347 22.2457 37.0574 22.2457H37.5913C41.0498 22.2457 43.7574 20.8415 44.5488 16.778C44.8793 15.0806 44.7082 13.6632 43.8334 12.6664C43.5688 12.3658 43.2404 12.1164 42.8564 11.9131Z" fill="#179BD7"/>
<path d="M41.9096 11.5361C41.7715 11.4959 41.6288 11.4593 41.4825 11.4264C41.3355 11.3943 41.1848 11.3657 41.0298 11.3409C40.4871 11.2531 39.8926 11.2114 39.2555 11.2114H33.8787C33.7463 11.2114 33.6206 11.2414 33.5079 11.2955C33.2599 11.4147 33.0757 11.6495 33.0311 11.9369L31.8871 19.1817L31.8542 19.3931C31.9296 18.9162 32.337 18.5652 32.8204 18.5652H34.833C38.7861 18.5652 41.8812 16.9599 42.7859 12.3158C42.8128 12.1783 42.8355 12.0444 42.856 11.9135C42.6271 11.7921 42.3791 11.6883 42.1122 11.5998C42.0465 11.5778 41.9785 11.5566 41.9096 11.5361Z" fill="#222D65"/>
<path d="M33.0311 11.9368C33.0758 11.6494 33.2602 11.4146 33.508 11.2962C33.6215 11.242 33.7465 11.2121 33.8787 11.2121H39.2558C39.8928 11.2121 40.4874 11.2537 41.0299 11.3415C41.185 11.3664 41.3358 11.3949 41.4827 11.4271C41.629 11.46 41.7716 11.4966 41.9099 11.5368C41.9785 11.5573 42.0465 11.5785 42.1131 11.5997C42.38 11.6882 42.628 11.7928 42.8568 11.9134C43.1261 10.1969 42.8547 9.02824 41.9267 7.96997C40.9036 6.80493 39.0568 6.30615 36.6939 6.30615H29.8337C29.3509 6.30615 28.9393 6.65718 28.8646 7.13476L26.0073 25.2467C25.9509 25.605 26.2273 25.9284 26.5886 25.9284H30.824L31.8873 19.1816L33.0311 11.9368Z" fill="#253B80"/>
</svg>
