<svg width="335" height="93" viewBox="0 0 335 93" fill="none" xmlns="http://www.w3.org/2000/svg">
<g clip-path="url(#clip0_1_3)">
<path d="M186.84 9.01002C186.19 5.41002 185.67 3.68002 185.28 3.83002C184.46 4.20002 183.73 4.98002 183.08 6.17002C182.38 7.48002 182.04 8.96002 182.04 10.6C182.04 12.93 182.46 16.11 183.31 20.14C184.15 24.17 184.58 26.78 184.58 27.97C184.58 29.38 184.46 30.34 184.21 30.83C183.37 32.52 181 34.18 177.1 35.81C172.01 37.92 165.94 38.97 158.89 38.97C153.88 38.97 149.41 37.91 145.49 35.77C141.94 33.84 140.17 31.92 140.17 30.01C140.17 27.61 143.3 25.41 149.55 23.43C154.12 21.97 158.96 20.94 164.07 20.35C167.87 19.93 170.02 19.67 170.51 19.57C171.35 19.4 171.78 19.1 171.78 18.68C171.78 17.79 167.26 17.34 158.23 17.34C152.12 17.34 146.91 18.84 142.59 21.85C137.92 25.05 135.59 29.24 135.59 34.4C135.59 37.48 137.46 40.2 141.21 42.56C145.38 45.19 150.71 46.51 157.18 46.51C165.74 46.51 172.84 44.82 178.48 41.45C185.26 37.38 188.65 31.38 188.65 23.47C188.65 20.29 188.05 15.48 186.86 9.02002L186.84 9.01002Z" fill="#444144"/>
<path d="M234.09 20.16C232.72 19.15 231.23 18.65 229.62 18.65C226.74 18.65 224.56 21.64 223.07 27.62C222.57 27.82 221.37 28.07 219.46 28.37C217.47 28.69 216.02 28.86 215.1 28.86C215.09 28.86 215.07 28.86 215.06 28.86V28.81C214.67 27.74 214.01 26.61 213.09 25.42C211.8 23.78 210.55 22.96 209.33 22.96C207.54 22.96 206 24.12 204.71 26.44C203.64 28.42 203.11 30.3 203.11 32.11C203.11 34.85 204.53 36.22 207.36 36.22H208.59C209.43 36.12 209.86 36.39 209.86 37.04C209.86 37.36 209.69 37.69 209.34 38.01C207.3 39.77 201.88 41.67 193.07 43.71C187.78 44.93 185.14 46.18 185.14 47.47C185.14 48.76 188.38 49.37 194.86 49.37C200.22 49.37 204.67 48.07 208.21 45.48C211.51 43.06 213.53 39.85 214.32 35.87C218.24 35.75 222.09 35.03 225.84 33.7C229.34 32.46 231.82 31.17 233.29 29.83C235.2 28.14 236.16 25.91 236.16 23.13C236.16 22.16 235.48 21.17 234.11 20.17L234.09 20.16Z" fill="#444144"/>
<path d="M264.85 39.21C267.83 37.5 269.48 35.3 269.8 32.62C269.97 30.91 269.68 30.05 268.91 30.05C268.76 30.05 268.25 30.43 267.38 31.18C266.36 32.11 265.28 32.81 264.14 33.28C262.4 34.06 260.38 34.44 258.07 34.44C258.07 34.44 258.06 34.44 258.05 34.44C258.05 34.44 258.04 34.44 258.03 34.44C256.94 34.44 256.22 34.18 255.87 33.66C255.62 33.29 255.43 32.45 255.31 31.16C254.56 22.96 253.96 16.3 253.48 11.2C253 6.10001 252.38 3.54001 251.58 3.54001C250.96 3.54001 250.25 4.42001 249.46 6.16001C248.67 7.91001 248.31 9.52001 248.38 10.98C249.22 20.89 249.98 28.98 250.65 35.26C250.87 37.87 251.27 39.53 251.84 40.25C252.48 41.07 253.89 41.48 256.05 41.48C256.07 41.48 256.09 41.48 256.1 41.48C256.1 41.48 256.11 41.48 256.12 41.48C259.27 41.48 262.18 40.72 264.83 39.21H264.85Z" fill="#444144"/>
<path d="M271.77 51.42C271.37 51.42 270.9 51.57 270.35 51.87C267.92 53.29 265.3 54.3 262.49 54.92C261.55 55.12 260.6 55.3 259.66 55.48C258.99 55.7 258.7 56.13 258.8 56.75C258.9 57.3 259.66 57.88 261.07 58.5C262.36 59.05 263.49 59.36 264.46 59.43C267.56 59.68 269.88 59.16 271.42 57.87C272.49 56.98 273.02 55.49 273.02 53.4C273.02 52.08 272.6 51.43 271.75 51.43L271.77 51.42Z" fill="#444144"/>
<path d="M297.63 48.93C296.77 48.36 295.99 48.07 295.27 48.07C294.5 48.07 293.66 48.91 292.74 50.6C291.95 52.09 291.55 53.12 291.55 53.69C291.55 54.19 291.84 54.72 292.41 55.29C293.16 56.06 294.14 56.44 295.35 56.44C296.37 56.44 297.25 55.67 297.99 54.13C298.61 52.81 298.92 51.6 298.92 50.48C298.92 50.01 298.49 49.49 297.63 48.92V48.93Z" fill="#444144"/>
<path d="M332.69 27.29C332.49 27.29 330.93 27.89 328 29.08C325.07 30.27 322.94 30.87 321.6 30.87C320.26 30.87 319.06 30.35 317.91 29.3C316.77 28.25 316.2 27.14 316.2 25.98C316.2 25.07 316.83 24.29 318.1 23.65C319.09 23.16 319.97 22.91 320.74 22.91C321.36 22.91 321.86 23.29 322.25 24.05C322.63 24.81 322.99 25.19 323.31 25.19C324.06 25.19 324.89 24.84 325.81 24.15C327.08 23.16 327.71 21.83 327.71 20.17C327.71 17.32 326.17 15.89 323.09 15.89C320.48 15.89 317.86 17.43 315.23 20.52C312.52 23.68 311.17 26.97 311.17 30.41C311.17 31.48 311.33 32.49 311.65 33.43C309.59 34.13 306.85 34.47 303.42 34.47C302.08 34.47 301.16 34.18 300.67 33.61C300.25 33.11 300.24 32.05 300.63 30.42C300.93 29.25 300.7 28.66 299.96 28.66C299.66 28.66 298.99 29.13 297.95 30.07C296.76 31.19 295.86 31.9 295.27 32.19C292.14 33.68 289.44 34.42 287.15 34.42C287.06 34.42 286.98 34.43 286.9 34.44C285.94 34.41 285.28 34.16 284.96 33.67C284.71 33.3 284.52 32.46 284.4 31.17C283.65 22.97 283.05 16.31 282.57 11.21C282.09 6.11002 281.47 3.55002 280.67 3.55002C280.05 3.55002 279.34 4.43002 278.55 6.17002C277.76 7.92002 277.4 9.53002 277.47 10.99C278.31 20.9 279.07 28.99 279.74 35.27C279.96 37.88 280.36 39.54 280.93 40.26C281.57 41.08 282.98 41.49 285.14 41.49C285.15 41.49 285.17 41.49 285.18 41.49C285.19 41.49 285.2 41.49 285.21 41.49C289.48 41.49 293.07 40.25 295.97 37.77C296.39 40.25 298.22 41.49 301.44 41.49C301.44 41.49 301.46 41.49 301.47 41.49C301.47 41.49 301.47 41.49 301.48 41.49C305.48 41.49 311.11 40.51 318.39 38.55C325.54 36.64 329.96 34.96 331.65 33.52C333.26 32.16 334.07 30.7 334.07 29.16C334.07 27.92 333.61 27.3 332.69 27.3V27.29Z" fill="#444144"/>
<path d="M170.33 78.01H165.49L163.61 83.29H165.44V83.75H161.7V83.29H162.85L169.08 66.51H171.08L177.24 83.29H178.36V83.75H170.37V83.29H172.1L170.32 78.01H170.33ZM165.71 77.47H170.13L168.01 71.07L165.71 77.47Z" fill="#E3A745"/>
<path d="M186.33 66.65C190.63 66.65 193.12 67.63 193.12 70.66C193.12 73 191.65 74.25 189.09 74.67V74.72C192.17 75.11 193.98 76.41 193.98 78.97C193.98 82.76 190.8 83.76 186.21 83.76H179.03V83.3H180.62V67.13H179.03V66.67H186.33V66.65ZM185.38 74.64H186.02C187.78 74.64 188.29 73.52 188.29 71.51V70.36C188.29 68.02 187.87 67.11 186.17 67.11H185.39V74.63L185.38 74.64ZM185.38 83.28H186.53C188.41 83.28 188.95 81.86 188.95 79.61V78.32C188.95 76.32 188.31 75.09 185.95 75.09H185.39V83.27L185.38 83.28Z" fill="#E3A745"/>
<path d="M202.65 78.01H197.81L195.93 83.29H197.76V83.75H194.02V83.29H195.17L201.4 66.51H203.4L209.56 83.29H210.68V83.75H202.69V83.29H204.42L202.64 78.01H202.65ZM198.04 77.47H202.46L200.34 71.07L198.04 77.47Z" fill="#E3A745"/>
<path d="M221.32 67.04H218.85V66.65H223.66V67.04H222.05L218.36 75.2V83.29H219.85V83.75H212.11V83.29H213.6V75.67L209.45 67.05H208.3V66.66H216.12V67.05H214.53L217.85 74.7L221.32 67.05V67.04Z" fill="#E3A745"/>
<path d="M229.9 78.01H225.06L223.18 83.29H225.01V83.75H221.27V83.29H222.42L228.65 66.51H230.65L236.81 83.29H237.93V83.75H229.94V83.29H231.67L229.89 78.01H229.9ZM225.28 77.47H229.7L227.58 71.07L225.28 77.47Z" fill="#E3A745"/>
<path d="M262.39 66.65V67.11H261.05V83.28H262.39V83.74H254.94V83.28H256.28V68.01H256.18L252.51 83.74H249.46L245.16 67.93H245.06V83.27H246.4V83.73H243.08V83.27H244.42V67.1H243.08V66.64H249.68L252.93 79.22L255.86 66.64H262.38L262.39 66.65Z" fill="#E3A745"/>
<path d="M271.77 78.01H266.93L265.05 83.29H266.88V83.75H263.14V83.29H264.29L270.52 66.51H272.52L278.68 83.29H279.8V83.75H271.81V83.29H273.54L271.76 78.01H271.77ZM267.16 77.47H271.58L269.46 71.07L267.16 77.47Z" fill="#E3A745"/>
<path d="M289.27 66.65V67.19H286.68V83.22H287.56C290.59 83.22 291.93 81.02 293.37 78.04H293.88L293.42 83.76H280.47V83.22H281.91V67.19H280.47V66.65H289.26H289.27Z" fill="#E3A745"/>
<path d="M303.83 66.65V67.19H301.24V83.22H302.12C305.15 83.22 306.49 81.02 307.93 78.04H308.44L307.98 83.76H295.03V83.22H296.47V67.19H295.03V66.65H303.82H303.83Z" fill="#E3A745"/>
<path d="M26.9099 21.76C29.1099 26.44 31.4699 31.5 33.7899 35.99H97.2599C97.8199 32.05 98.3399 26.64 98.7399 21.76H26.9099Z" fill="#E3A745"/>
<path d="M99.4601 8.38H22.3101C23.1701 10.07 24.1101 12.01 25.1001 14.09H99.0401C99.2101 11.8 99.3601 9.8 99.4501 8.38H99.4601Z" fill="#D0675C"/>
<path d="M43.4101 50.59C50.3501 52.36 94.3001 45.79 96.0701 42.85C96.2401 42.56 96.4101 42.03 96.5801 41.32H35.8401C38.6701 46.36 41.3301 50.07 43.4101 50.6V50.59Z" fill="#9BCCE5"/>
<path d="M113.67 1.89C107.34 1.89 105.04 9.16 103.96 17.93H22.22C16.53 7.91 10.18 0 1.92 0C0.86 0 0 0.86 0 1.92C0 2.98 0.86 3.84 1.92 3.84C7.81 3.84 13.03 9.99 17.78 17.94H17.07C16.01 17.94 15.15 18.8 15.15 19.86C15.15 20.92 16.01 21.78 17.07 21.78H19.96C21.91 25.34 23.78 29.1 25.59 32.74C26.14 33.85 26.68 34.93 27.22 36.01H26.54C25.48 36.01 24.62 36.87 24.62 37.93C24.62 38.99 25.48 39.85 26.54 39.85H29.17C34.61 50.36 39.82 58.41 46.62 58.41C58.42 58.41 83.05 55.2 95.91 50.91C86.46 59.06 67.89 62.71 53.35 65.56C39.28 68.32 32.49 69.83 31.8 73.84C31.59 75.07 31.91 76.21 32.74 77.15C34.93 79.62 40.52 80.02 43.82 80.02V82.35C41.94 83.11 40.6 84.95 40.6 87.1C40.6 89.93 42.9 92.23 45.73 92.23C48.56 92.23 50.86 89.93 50.86 87.1C50.86 84.94 49.53 83.11 47.64 82.35V79.98H89.9V82.35C88.02 83.11 86.68 84.95 86.68 87.1C86.68 89.93 88.98 92.23 91.81 92.23C94.64 92.23 96.94 89.93 96.94 87.1C96.94 84.94 95.61 83.11 93.72 82.35V79.98H103.73C104.79 79.98 105.65 79.12 105.65 78.07C105.65 77.02 104.79 76.16 103.73 76.16H91.81H45.74C45.74 76.16 45.74 76.16 45.73 76.16C45.72 76.16 45.73 76.16 45.72 76.16H45.64C40.55 76.41 35.96 75.49 35.56 74.57C36.43 72.8 46.64 70.8 54.09 69.33C74.44 65.33 102.22 59.87 105.54 42.14C105.56 42.04 105.58 41.94 105.6 41.84C105.61 41.78 105.63 41.72 105.64 41.66C105.64 41.66 105.64 41.64 105.64 41.63C105.75 41.07 105.85 40.49 105.94 39.86H107.61C108.67 39.86 109.53 39 109.53 37.94C109.53 36.88 108.67 36.02 107.61 36.02H106.37C106.55 34.01 106.7 31.76 106.86 29.27C107.01 26.91 107.17 24.34 107.41 21.8H108.75C109.81 21.8 110.67 20.94 110.67 19.88C110.67 18.82 109.81 17.96 108.75 17.96H107.83C108.69 11.34 110.27 5.75 113.68 5.75C114.74 5.75 115.6 4.89 115.6 3.83C115.6 2.77 114.74 1.91 113.68 1.91L113.67 1.89ZM33.5 39.82H102.06C101.99 40.3 101.91 40.75 101.82 41.18C101.79 41.34 101.75 41.5 101.72 41.66C101.42 43.01 101.05 44.03 100.58 44.5C96.15 48.93 63.31 54.55 46.63 54.55C42.25 54.55 37.85 47.95 33.51 39.82H33.5ZM103.03 28.99C102.89 31.24 102.73 33.7 102.51 35.99H31.51C30.68 34.35 29.84 32.68 29.02 31.02C27.47 27.91 25.92 24.78 24.32 21.77H103.55C103.34 24.17 103.18 26.62 103.03 29V28.99Z" fill="#444144"/>
<path d="M126.17 14.08V74.25" stroke="#444144" stroke-width="0.96" stroke-linecap="round" stroke-linejoin="round"/>
</g>
<defs>
<clipPath id="clip0_1_3">
<rect width="334.07" height="92.21" fill="white"/>
</clipPath>
</defs>
</svg>
